<?xml version="1.0" encoding="UTF-8"?>
<svg width="256" height="256" viewBox="0 0 256 256" xmlns="http://www.w3.org/2000/svg">
  <!-- Background circle -->
  <circle cx="128" cy="128" r="120" fill="#4F46E5" stroke="#312E81" stroke-width="4"/>
  
  <!-- Prayer hands icon -->
  <g transform="translate(128, 128)">
    <!-- Left hand -->
    <path d="M-20 -40 Q-30 -35 -35 -20 Q-35 -5 -30 10 Q-25 20 -15 25 L-5 20 Q-10 10 -10 0 Q-10 -15 -15 -25 Q-18 -35 -20 -40 Z" 
          fill="#FFFFFF" stroke="#E5E7EB" stroke-width="1"/>
    
    <!-- Right hand -->
    <path d="M20 -40 Q30 -35 35 -20 Q35 -5 30 10 Q25 20 15 25 L5 20 Q10 10 10 0 Q10 -15 15 -25 Q18 -35 20 -40 Z" 
          fill="#FFFFFF" stroke="#E5E7EB" stroke-width="1"/>
    
    <!-- Fingers detail -->
    <ellipse cx="-20" cy="-35" rx="3" ry="8" fill="#F3F4F6"/>
    <ellipse cx="-15" cy="-38" rx="3" ry="8" fill="#F3F4F6"/>
    <ellipse cx="-10" cy="-37" rx="3" ry="8" fill="#F3F4F6"/>
    <ellipse cx="-5" cy="-35" rx="3" ry="8" fill="#F3F4F6"/>
    
    <ellipse cx="20" cy="-35" rx="3" ry="8" fill="#F3F4F6"/>
    <ellipse cx="15" cy="-38" rx="3" ry="8" fill="#F3F4F6"/>
    <ellipse cx="10" cy="-37" rx="3" ry="8" fill="#F3F4F6"/>
    <ellipse cx="5" cy="-35" rx="3" ry="8" fill="#F3F4F6"/>
    
    <!-- Light rays -->
    <g opacity="0.6">
      <line x1="0" y1="-60" x2="0" y2="-80" stroke="#FEF3C7" stroke-width="3" stroke-linecap="round"/>
      <line x1="-25" y1="-55" x2="-35" y2="-70" stroke="#FEF3C7" stroke-width="2" stroke-linecap="round"/>
      <line x1="25" y1="-55" x2="35" y2="-70" stroke="#FEF3C7" stroke-width="2" stroke-linecap="round"/>
      <line x1="-40" y1="-35" x2="-55" y2="-45" stroke="#FEF3C7" stroke-width="2" stroke-linecap="round"/>
      <line x1="40" y1="-35" x2="55" y2="-45" stroke="#FEF3C7" stroke-width="2" stroke-linecap="round"/>
    </g>
  </g>
  
  <!-- Text -->
  <text x="128" y="220" text-anchor="middle" font-family="Arial, sans-serif" font-size="16" font-weight="bold" fill="#FFFFFF">
    PRAYER SLIDES
  </text>
</svg>
